<?xml version="1.0" standalone="no"?>
<!DOCTYPE svg PUBLIC "-//W3C//DTD SVG 20010904//EN"
 "http://www.w3.org/TR/2001/REC-SVG-20010904/DTD/svg10.dtd">
<svg version="1.0" xmlns="http://www.w3.org/2000/svg"
 width="347.000000pt" height="375.000000pt" viewBox="0 0 347.000000 375.000000"
 preserveAspectRatio="xMidYMid meet">

<g transform="translate(0.000000,375.000000) scale(0.100000,-0.100000)"
fill="#000000" stroke="none">
<path d="M0 1875 l0 -1875 1735 0 1735 0 0 1875 0 1875 -1735 0 -1735 0 0
-1875z m1354 1481 c137 -35 224 -84 322 -181 132 -131 191 -261 201 -446 11
-206 -49 -363 -196 -510 -141 -140 -282 -199 -477 -199 -116 0 -189 16 -293
65 -223 106 -366 318 -388 575 -6 73 14 196 48 285 62 167 227 327 396 386
154 54 249 60 387 25z m1250 -494 c161 -75 260 -229 260 -402 0 -96 -23 -171
-76 -250 -131 -197 -418 -254 -611 -122 -110 76 -184 198 -194 321 -18 213 97
396 295 468 58 20 80 23 163 20 82 -3 106 -8 163 -35z m-1269 -982 c133 -42
222 -96 320 -195 100 -100 144 -167 189 -288 29 -79 30 -88 31 -247 0 -184
-11 -235 -82 -371 -149 -288 -514 -464 -815 -394 -181 42 -282 97 -403 219
-142 142 -212 298 -222 491 -7 122 8 222 47 323 94 244 307 422 570 478 95 20
276 12 365 -16z m1336 16 c273 -58 469 -323 446 -602 -12 -132 -71 -260 -166
-355 -223 -222 -582 -222 -801 0 -174 175 -219 428 -115 646 116 242 371 367
636 311z"/>
</g>
</svg>
